PathFileType	4	(X/Y/Z)	Patient4_TMGait_0pt3_01_right_10.trc.trc
DataRate	CameraRate	NumFrames	NumMarkers	Units	OrigDataRate	OrigDataStartFrame	OrigNumFrames
51.660516605166	51.660516605166	4	33	mm	51.660516605166	53	       141
Frame#	Time	Sacral			L.Shoulder			Chest			R.Shoulder			Neck			R.ASIS			L.ASIS			R.Thigh.Superior			R.Thigh.Lateral			R.Thigh.Inferior			R.Patella			L.Thigh.Superior			L.Thigh.Lateral			L.Thigh.Inferior			L.Patella			L.Shank.Superior			L.Shank.Lateral			L.Shank.Inferior			R.Shank.Superior			R.Shank.Lateral			R.Shank.Inferior			R.Heel			R.Midfoot.Superior			R.Midfoot.Lateral			R.Toe			L.Heel			L.Midfoot.Lateral			L.Midfoot.Superior			L.Toe			L.Elbow			L.Wrist			R.Elbow			R.Wrist			
		X1	Y1	Z1	X2	Y2	Z2	X3	Y3	Z3	X4	Y4	Z4	X5	Y5	Z5	X6	Y6	Z6	X7	Y7	Z7	X8	Y8	Z8	X9	Y9	Z9	X10	Y10	Z10	X11	Y11	Z11	X12	Y12	Z12	X13	Y13	Z13	X14	Y14	Z14	X15	Y15	Z15	X16	Y16	Z16	X17	Y17	Z17	X18	Y18	Z18	X19	Y19	Z19	X20	Y20	Z20	X21	Y21	Z21	X22	Y22	Z22	X23	Y23	Z23	X24	Y24	Z24	X25	Y25	Z25	X26	Y26	Z26	X27	Y27	Z27	X28	Y28	Z28	X29	Y29	Z29	X30	Y30	Z30	X31	Y31	Z31	X32	Y32	Z32	X33	Y33	Z33	

53	18.446571428571	627.283615878452	982.918034058088	564.215103700320	783.792681169630	1422.750699524945	385.403189721640	895.735625365274	1356.683653490136	541.118837526847	817.699317238030	1425.281272730485	719.968281801109	774.755198277621	1481.747692212346	550.542959654223	865.149273678632	930.228606732266	673.711669283527	838.780233818895	954.123935471709	400.700645769823	914.907887554574	733.762677110771	633.243624834145	840.533265970224	614.280604474847	684.822086259798	921.207024150303	570.780830350565	603.171158477688	924.078465384996	473.969807049892	606.125443000661	922.629749445922	765.033187377992	420.949380496884	875.193571117120	641.432740232595	337.021401794705	977.429670158473	575.767720251572	397.505658129722	990.186240873390	488.892412964861	381.478266860777	928.946176065995	422.830930375442	366.262896938167	790.488734965281	367.189618832532	323.967748259135	803.222153162417	231.010612302257	359.431233762784	878.379560329008	387.003708492809	604.441194067013	788.965625590708	291.620450376548	656.830569554339	815.708941660335	196.523752675932	588.327069286052	660.839494627721	44.071707950946	544.533375245510	831.685092035150	96.393860251607	591.843381520613	740.028512336882	37.186883924785	624.189385265309	948.393571838904	41.797120785603	626.267936134594	632.047574054857	124.426563306185	405.826285952816	684.051518923158	110.161972606236	311.281346125643	787.710501079911	136.580811621150	322.958096690734	879.814291502962	53.108963509911	260.247883117593	746.926653800466	1079.328766267626	253.557754852482	923.354910159511	891.636876704781	211.122209717519	866.127828585975	1078.506990577435	841.385779259355	1069.889201828288	918.936296845567	827.606465526352	
54	18.465928571429	625.617309751925	980.732282938931	566.685774549762	780.489226623801	1420.218111187063	386.161538998105	894.178208418412	1354.319775179751	540.705803364223	818.488152071567	1423.225998787628	720.470646685253	773.414163081358	1479.705913010891	551.156756720803	864.718569179245	928.150450979951	674.006719051449	835.761676683712	952.431979148859	401.161517230915	914.984567973253	732.203139571049	632.761736613766	841.687696972123	612.203253183888	684.569348566662	922.057537907790	569.206563300941	602.209386763519	925.156319281270	471.723655837881	604.943154341219	921.180508555970	765.032616601020	420.931616144355	874.981935098186	641.017317902646	337.048804100283	978.108422164590	576.684289677574	397.193634774772	992.458630589023	490.548356657229	381.047971658760	933.383820290307	423.290050819662	365.530973830031	796.982382759173	362.915858944061	323.119292261959	814.706105362591	227.020976292428	358.057030882497	878.049343996241	384.961978201226	603.434216175412	787.493219724140	290.791980549102	656.099707770520	812.176156798065	195.357595007830	587.607805452337	655.161677188700	44.265140075528	544.495941059975	825.985688116088	96.209440387868	591.580774766414	734.303633561719	37.260888811894	624.125733995764	942.678561712065	41.342390735040	626.328654286406	647.580312593097	114.082390313715	404.196856592965	700.026814993147	101.940249437788	309.590282475710	802.668027616698	132.126319495832	321.290590095405	897.768975508758	52.337093884876	258.378112868342	736.327602378743	1073.732331751214	263.011293682364	896.413032234275	871.588568463812	224.207584023705	877.625644914300	1076.867225579520	838.053137816190	1089.111630005557	928.688399783571	817.343769594126	
55	18.485285714286	624.100083902494	978.856369015296	569.059134876473	777.185285349709	1417.989094324360	386.771881724251	892.724156560733	1352.220954474379	539.996134578112	819.500679503261	1421.434143561550	720.675644696848	772.201765854314	1477.907365177066	551.577459605254	864.367222961744	926.256285890412	674.016711498844	832.745599360717	950.974295799929	401.376132425889	914.726361972934	730.638056014889	632.010849010172	842.296553586778	610.282241540455	684.086406323381	922.201261300799	567.661670723540	600.960369491568	925.378362440686	469.638722916338	603.443380129226	919.535244346621	765.097106428004	420.845362721367	874.432837465644	640.701561066778	337.014187073311	978.285991456236	577.591549521449	396.887512856398	994.153145769018	492.271787367455	380.665361537777	937.357000786278	423.885565507250	364.803803370942	803.319752845303	358.692789978089	322.046654127677	826.098233855901	223.280975537793	356.554654312659	877.056563872502	383.073305331368	602.209764358218	785.594166835172	290.001148046079	655.271102189036	808.386997677208	194.267831531978	586.812885570337	649.466156933730	44.414034626714	544.478661658498	820.213498263637	95.992233675846	591.246515174338	728.557248037536	37.320329499759	624.070910856679	936.939203192718	40.954470134845	626.374504000576	663.248038628281	104.051107801336	402.165792648439	716.263912447141	93.998410391363	307.612847685565	817.725784041768	127.956626778543	319.522069277892	915.847375622617	51.898888884233	256.667409254576	726.007118668916	1069.082642383474	271.767249781268	868.237606009883	853.704177198790	236.723132324058	888.820536802419	1075.793898458753	834.180854792375	1107.220833004038	939.509697502738	806.066331643749	
56	18.504642857143	622.776345041038	977.422600711103	571.343234834821	773.860470382880	1416.190435197216	387.232186463282	891.376300766408	1350.523438687254	538.967770609319	820.751694981383	1420.037936826046	720.560073004897	771.116068400073	1476.473053068878	551.811766267106	864.114554361492	924.653116326510	673.721798819305	829.746468032792	949.871828555749	401.340674356204	914.083439647562	729.141523164659	630.989942003744	842.269531488069	608.615469703571	683.404169050818	921.518105140473	566.206786764523	599.463096575534	924.600144602954	467.790523709205	601.691581629197	917.722496970301	765.343659356051	420.716180561693	873.573672174162	640.608083281581	336.917930778709	977.981566230026	578.587890676591	396.585890607989	995.281208900607	494.149144006161	380.319018423396	940.840033036744	424.717544361769	364.093280195530	809.463076933267	354.710955287362	320.766202181260	837.269975656268	219.992650511406	354.972396696330	875.271226284294	381.421459884921	600.826445877080	783.162005746040	289.296674199179	654.399806278832	804.283209696626	193.307607357161	585.983878295807	643.744182290269	44.520049730426	544.489088527417	814.376678885130	95.760787021335	590.868263116124	722.786578782355	37.365032748569	624.029821098747	931.173578512650	40.639077057660	626.403099443046	678.864848395193	94.656807050680	399.802779414115	732.582168340602	86.614842155820	305.426983116078	832.714005581364	124.286967153691	317.724255495040	933.832742947750	51.945162186867	255.220067304304	715.929898407063	1065.548146881022	279.607880927066	839.241969173260	838.437495750998	248.467720516648	899.699939386757	1075.404798066007	829.856893297758	1124.081839889015	951.414092962068	793.924450494388	
